<svg width="24" height="24" viewBox="0 0 24 24" fill="none" xmlns="http://www.w3.org/2000/svg">
    <path d="M19.5495 7.80792C19.1283 6.96554 18.5667 6.26356 17.7244 5.84238C16.0396 5 14.3549 5 14.3549 5C13.9337 5.56158 13.9337 5.84238 13.9337 5.84238C13.9337 5.84238 12.8105 5.70198 11.8277 5.70198H11.6873C10.7046 5.70198 9.58139 5.84238 9.58139 5.84238C9.58139 5.84238 9.3006 5.56158 9.0198 5C9.0198 5 7.19465 5 5.5099 5.98277C4.66752 6.40396 4.10594 7.10594 3.82515 7.80792C3.12317 9.35228 2 12.3006 2 16.3721C2 16.5125 2 16.5125 2 16.6529C2.28079 17.2145 3.68475 19.0396 6.63307 19.18C6.77347 19.18 6.91386 19.18 7.05426 19.0396L8.31782 17.4952C8.45822 17.3549 8.59861 17.2145 8.87941 17.3549C9.30059 17.4952 10.2834 17.776 11.5469 17.776H11.8277C13.0913 17.776 14.0741 17.4952 14.4952 17.3549C14.6356 17.3549 14.9164 17.3549 15.0568 17.4952L16.3204 19.0396C16.4608 19.18 16.6012 19.18 16.7416 19.18C19.8303 19.0396 21.0939 17.2145 21.3747 16.6529C21.3747 16.5125 21.3747 16.5125 21.3747 16.3721C21.3747 12.3006 20.2515 9.35228 19.5495 7.80792ZM8.59861 14.9681C7.61584 14.9681 6.77347 14.1257 6.77347 13.0026C6.77347 11.8794 7.61584 11.037 8.59861 11.037C9.58139 11.037 10.4238 11.8794 10.4238 13.0026C10.4238 14.1257 9.58139 14.9681 8.59861 14.9681ZM14.776 14.9681C13.7933 14.9681 12.9509 14.1257 12.9509 13.0026C12.9509 11.8794 13.7933 11.037 14.776 11.037C15.7588 11.037 16.6012 11.8794 16.6012 13.0026C16.6012 14.1257 15.7588 14.9681 14.776 14.9681Z" fill="#1C1C25"/>
</svg>
