<svg xmlns="http://www.w3.org/2000/svg" width="22" height="26" fill="none"><path fill="url(#a)" d="M11.005 25.078 1.01 19.974l9.995-4.902z"/><path stroke="#5A9DDB" stroke-miterlimit="10" stroke-width=".05" d="M11.005 25.078 1.01 19.985l10.005-4.913v10.006z"/><path fill="url(#b)" d="M11.005 15.072 21 20.005l-9.995 5.073z"/><path stroke="url(#c)" stroke-miterlimit="10" stroke-width=".05" d="M11.005 15.072 21 20.005l-9.985 5.073V15.072z"/><path fill="url(#d)" d="M16.914 12.193 21 19.994l-9.995-4.932z"/><path stroke="#3FAEFF" stroke-miterlimit="10" stroke-width=".05" d="m16.924 12.194 4.076 7.8-9.995-4.921 5.909-2.89z"/><path fill="url(#e)" d="m5.107 12.174 5.899 2.899L1 19.965z"/><path stroke="#69A5FF" stroke-miterlimit="10" stroke-width=".05" d="m5.107 12.174 5.908 2.889L1.01 19.975l4.097-7.801Z"/><path fill="url(#f)" d="M11.006 15.073V.93L5.117 12.184l5.909 2.889z"/><path stroke="#88AABD" stroke-miterlimit="10" stroke-width=".05" d="M11.006 15.073V.92l-5.88 11.254 5.9 2.899z"/><path fill="url(#g)" d="M11.005 15.073V.93l5.909 11.264z"/><path stroke="#51A2ED" stroke-miterlimit="10" stroke-width=".05" d="M11.005 15.073V.92l5.919 11.274-5.92 2.869z"/><path fill="url(#h)" d="M11.005 25.078 1.01 19.974l9.995-4.902z"/><path stroke="#5A9DDB" stroke-miterlimit="10" stroke-width=".05" d="M11.005 25.078 1.01 19.985l10.005-4.913v10.006z"/><path fill="url(#i)" d="M11.005 15.072 21 20.005l-9.995 5.073z"/><path stroke="url(#j)" stroke-miterlimit="10" stroke-width=".05" d="M11.005 15.072 21 20.005l-9.985 5.073V15.072z"/><path fill="url(#k)" d="M16.914 12.193 21 19.994l-9.995-4.932z"/><path stroke="#3FAEFF" stroke-miterlimit="10" stroke-width=".05" d="m16.924 12.194 4.076 7.8-9.995-4.921 5.909-2.89z"/><path fill="url(#l)" d="m5.107 12.174 5.899 2.899L1 19.965z"/><path stroke="#69A5FF" stroke-miterlimit="10" stroke-width=".05" d="m5.107 12.174 5.908 2.889L1.01 19.975l4.097-7.801Z"/><path fill="url(#m)" d="M11.006 15.073V.93L5.117 12.184l5.909 2.889z"/><path stroke="#88AABD" stroke-miterlimit="10" stroke-width=".05" d="M11.006 15.073V.92l-5.88 11.254 5.9 2.899z"/><path fill="url(#n)" d="M11.005 15.073V.93l5.909 11.264z"/><path stroke="#51A2ED" stroke-miterlimit="10" stroke-width=".05" d="M11.005 15.073V.92l5.919 11.274-5.92 2.869z"/><path fill="url(#o)" d="M11.005 25.078 1.01 19.974l9.995-4.902z"/><path stroke="#5A9DDB" stroke-miterlimit="10" stroke-width=".05" d="M11.005 25.078 1.01 19.985l10.005-4.913v10.006z"/><path fill="url(#p)" d="M11.005 15.072 21 20.005l-9.995 5.073z"/><path stroke="url(#q)" stroke-miterlimit="10" stroke-width=".05" d="M11.005 15.072 21 20.005l-9.985 5.073V15.072z"/><path fill="url(#r)" d="M16.914 12.193 21 19.994l-9.995-4.932z"/><path stroke="#3FAEFF" stroke-miterlimit="10" stroke-width=".05" d="m16.924 12.194 4.076 7.8-9.995-4.921 5.909-2.89z"/><path fill="url(#s)" d="m5.107 12.174 5.899 2.899L1 19.965z"/><path stroke="#69A5FF" stroke-miterlimit="10" stroke-width=".05" d="m5.107 12.174 5.908 2.889L1.01 19.975l4.097-7.801Z"/><path fill="url(#t)" d="M11.006 15.073V.93L5.117 12.184l5.909 2.889z"/><path stroke="#88AABD" stroke-miterlimit="10" stroke-width=".05" d="M11.006 15.073V.92l-5.88 11.254 5.9 2.899z"/><path fill="url(#u)" d="M11.005 15.073V.93l5.909 11.264z"/><path stroke="#51A2ED" stroke-miterlimit="10" stroke-width=".05" d="M11.005 15.073V.92l5.919 11.274-5.92 2.869z"/><path fill="url(#v)" d="M11.005 25.078 1.01 19.974l9.995-4.902z"/><path stroke="#5A9DDB" stroke-miterlimit="10" stroke-width=".05" d="M11.005 25.078 1.01 19.985l10.005-4.913v10.006z"/><path fill="url(#w)" d="M11.005 15.072 21 20.005l-9.995 5.073z"/><path stroke="url(#x)" stroke-miterlimit="10" stroke-width=".05" d="M11.005 15.072 21 20.005l-9.985 5.073V15.072z"/><path fill="url(#y)" d="M16.914 12.193 21 19.994l-9.995-4.932z"/><path stroke="#3FAEFF" stroke-miterlimit="10" stroke-width=".05" d="m16.924 12.194 4.076 7.8-9.995-4.921 5.909-2.89z"/><path fill="url(#z)" d="m5.107 12.174 5.899 2.899L1 19.965z"/><path stroke="#69A5FF" stroke-miterlimit="10" stroke-width=".05" d="m5.107 12.174 5.908 2.889L1.01 19.975l4.097-7.801Z"/><path fill="url(#A)" d="M11.006 15.073V.93L5.117 12.184l5.909 2.889z"/><path stroke="#88AABD" stroke-miterlimit="10" stroke-width=".05" d="M11.006 15.073V.92l-5.88 11.254 5.9 2.899z"/><path fill="url(#B)" d="M11.005 15.073V.93l5.909 11.264z"/><path stroke="#51A2ED" stroke-miterlimit="10" stroke-width=".05" d="M11.005 15.073V.92l5.919 11.274-5.92 2.869z"/><defs><linearGradient id="a" x1="3.174" x2="13.391" y1="16.612" y2="21.756" gradientUnits="userSpaceOnUse"><stop stop-color="#45C7FF"/><stop offset="1" stop-color="#0E2450"/></linearGradient><linearGradient id="b" x1="10.924" x2="18.353" y1="26.074" y2="15.193" gradientUnits="userSpaceOnUse"><stop stop-color="#3B9CF7"/><stop offset=".2" stop-color="#579CED"/><stop offset=".703" stop-color="#3789D7"/><stop offset="1" stop-color="#A5C4DA"/></linearGradient><linearGradient id="c" x1="11.015" x2="21.011" y1="-86.534" y2="-86.534" gradientUnits="userSpaceOnUse"><stop stop-color="#4FB8D9"/><stop offset=".6" stop-color="#39D8FB"/><stop offset="1" stop-color="#3F5FBC"/></linearGradient><linearGradient id="d" x1="15.333" x2="23.134" y1="17.377" y2="8.771" gradientUnits="userSpaceOnUse"><stop stop-color="#33B6FF"/><stop offset="1" stop-color="#6562FD"/></linearGradient><linearGradient id="e" x1="6.053" x2="7.15" y1="16.985" y2="13.684" gradientUnits="userSpaceOnUse"><stop stop-color="#4AB0EA"/><stop offset="1" stop-color="#6D7F9B"/></linearGradient><linearGradient id="f" x1="12.355" x2="7.171" y1="7.996" y2="7.996" gradientUnits="userSpaceOnUse"><stop stop-color="#695CFB"/><stop offset="1" stop-color="#479AFD"/></linearGradient><linearGradient id="g" x1="12.686" x2="16.35" y1="9.627" y2="13.1" gradientUnits="userSpaceOnUse"><stop stop-color="#57E"/><stop offset="1" stop-color="#84A6FF"/></linearGradient><linearGradient id="h" x1="3.174" x2="13.391" y1="16.612" y2="21.756" gradientUnits="userSpaceOnUse"><stop stop-color="#45C7FF"/><stop offset="1" stop-color="#0E2450"/></linearGradient><linearGradient id="i" x1="10.924" x2="18.353" y1="26.074" y2="15.193" gradientUnits="userSpaceOnUse"><stop stop-color="#3B9CF7"/><stop offset=".2" stop-color="#579CED"/><stop offset=".703" stop-color="#3789D7"/><stop offset="1" stop-color="#A5C4DA"/></linearGradient><linearGradient id="j" x1="11.015" x2="21.011" y1="-86.534" y2="-86.534" gradientUnits="userSpaceOnUse"><stop stop-color="#4FB8D9"/><stop offset=".6" stop-color="#39D8FB"/><stop offset="1" stop-color="#3F5FBC"/></linearGradient><linearGradient id="k" x1="15.333" x2="23.134" y1="17.377" y2="8.771" gradientUnits="userSpaceOnUse"><stop stop-color="#33B6FF"/><stop offset="1" stop-color="#6562FD"/></linearGradient><linearGradient id="l" x1="6.053" x2="7.15" y1="16.985" y2="13.684" gradientUnits="userSpaceOnUse"><stop stop-color="#4AB0EA"/><stop offset="1" stop-color="#6D7F9B"/></linearGradient><linearGradient id="m" x1="12.355" x2="7.171" y1="7.996" y2="7.996" gradientUnits="userSpaceOnUse"><stop stop-color="#695CFB"/><stop offset="1" stop-color="#479AFD"/></linearGradient><linearGradient id="n" x1="12.686" x2="16.35" y1="9.627" y2="13.1" gradientUnits="userSpaceOnUse"><stop stop-color="#57E"/><stop offset="1" stop-color="#84A6FF"/></linearGradient><linearGradient id="o" x1="3.174" x2="13.391" y1="16.612" y2="21.756" gradientUnits="userSpaceOnUse"><stop stop-color="#45C7FF"/><stop offset="1" stop-color="#0E2450"/></linearGradient><linearGradient id="p" x1="10.924" x2="18.353" y1="26.074" y2="15.193" gradientUnits="userSpaceOnUse"><stop stop-color="#3B9CF7"/><stop offset=".2" stop-color="#579CED"/><stop offset=".703" stop-color="#3789D7"/><stop offset="1" stop-color="#A5C4DA"/></linearGradient><linearGradient id="q" x1="11.015" x2="21.011" y1="-86.534" y2="-86.534" gradientUnits="userSpaceOnUse"><stop stop-color="#4FB8D9"/><stop offset=".6" stop-color="#39D8FB"/><stop offset="1" stop-color="#3F5FBC"/></linearGradient><linearGradient id="r" x1="15.333" x2="23.134" y1="17.377" y2="8.771" gradientUnits="userSpaceOnUse"><stop stop-color="#33B6FF"/><stop offset="1" stop-color="#6562FD"/></linearGradient><linearGradient id="s" x1="6.053" x2="7.15" y1="16.985" y2="13.684" gradientUnits="userSpaceOnUse"><stop stop-color="#4AB0EA"/><stop offset="1" stop-color="#6D7F9B"/></linearGradient><linearGradient id="t" x1="12.355" x2="7.171" y1="7.996" y2="7.996" gradientUnits="userSpaceOnUse"><stop stop-color="#695CFB"/><stop offset="1" stop-color="#479AFD"/></linearGradient><linearGradient id="u" x1="12.686" x2="16.35" y1="9.627" y2="13.1" gradientUnits="userSpaceOnUse"><stop stop-color="#57E"/><stop offset="1" stop-color="#84A6FF"/></linearGradient><linearGradient id="v" x1="3.174" x2="13.391" y1="16.612" y2="21.756" gradientUnits="userSpaceOnUse"><stop stop-color="#45C7FF"/><stop offset="1" stop-color="#0E2450"/></linearGradient><linearGradient id="w" x1="10.924" x2="18.353" y1="26.074" y2="15.193" gradientUnits="userSpaceOnUse"><stop stop-color="#3B9CF7"/><stop offset=".2" stop-color="#579CED"/><stop offset=".703" stop-color="#3789D7"/><stop offset="1" stop-color="#A5C4DA"/></linearGradient><linearGradient id="x" x1="11.015" x2="21.011" y1="-86.534" y2="-86.534" gradientUnits="userSpaceOnUse"><stop stop-color="#4FB8D9"/><stop offset=".6" stop-color="#39D8FB"/><stop offset="1" stop-color="#3F5FBC"/></linearGradient><linearGradient id="y" x1="15.333" x2="23.134" y1="17.377" y2="8.771" gradientUnits="userSpaceOnUse"><stop stop-color="#33B6FF"/><stop offset="1" stop-color="#6562FD"/></linearGradient><linearGradient id="z" x1="6.053" x2="7.15" y1="16.985" y2="13.684" gradientUnits="userSpaceOnUse"><stop stop-color="#4AB0EA"/><stop offset="1" stop-color="#6D7F9B"/></linearGradient><linearGradient id="A" x1="12.355" x2="7.171" y1="7.996" y2="7.996" gradientUnits="userSpaceOnUse"><stop stop-color="#695CFB"/><stop offset="1" stop-color="#479AFD"/></linearGradient><linearGradient id="B" x1="12.686" x2="16.35" y1="9.627" y2="13.1" gradientUnits="userSpaceOnUse"><stop stop-color="#57E"/><stop offset="1" stop-color="#84A6FF"/></linearGradient></defs></svg>