<svg width="24" height="24" viewBox="0 0 24 24" fill="none" xmlns="http://www.w3.org/2000/svg">
    <path d="M13.9722 11.9333C13.8306 11.65 13.8306 11.3667 13.9722 11.0833C15.9556 8.675 19.7806 4.14167 19.9222 4.14167C19.7806 4.14167 18.9306 4.14167 18.6472 4.14167C18.5056 4.14167 18.3639 4.14167 18.3639 4.28333C17.2306 5.55833 14.3972 8.95833 13.2639 10.2333C13.1222 10.375 12.8389 10.375 12.6972 10.2333C11.9889 9.24167 9.86391 6.125 8.73058 4.425C8.58891 4.14167 8.44724 4 8.16391 4C7.03058 4 5.33058 4 4.33891 4C4.05558 4 3.91391 4.28333 4.05558 4.56667C6.03891 7.54167 9.43891 12.3583 10.1472 13.4917C10.2889 13.6333 10.2889 13.775 10.1472 13.9167L4.05558 21H5.47224C5.47224 21 5.61391 21 5.75558 20.8583C7.31391 19.3 9.86391 16.0417 10.7139 14.9083C10.8556 14.7667 11.1389 14.7667 11.2806 14.9083C11.9889 15.9 13.9722 18.875 15.2472 20.575C15.3889 20.7167 15.6722 20.8583 15.8139 20.8583C16.9472 20.8583 18.7889 20.8583 19.7806 20.8583C20.0639 20.8583 20.2056 20.575 20.0639 20.2917C18.7889 18.875 15.8139 14.4833 13.9722 11.9333Z" fill="#1C1C25"/>
</svg>
